<svg height="32px" width="32px" fill="#68217a" xmlns="http://www.w3.org/2000/svg" x="0px" y="0px">
    <g>
        <path d="M27.06 20.2132 27.06 5.9354C27.06 4.5567 26.4964 3.304 25.5882 2.3958C24.68 1.4876 23.4274.924 22.0486.924L5.3235.924 4.7955.924 4.7955 1.452 4.7955 20.2132 27.0593 20.2132Z" />
        <path fill="white" d="M16.4 15.1C16.4 15.4312 16.1318 15.7 15.8 15.7C15.4682 15.7 15.2 15.4312 15.2 15.1L15.2 13.3C15.2 12.9688 15.4682 12.7 15.8 12.7C16.1318 12.7 16.4 12.9688 16.4 13.3L16.4 15.1 16.4 15.1ZM20.6 9.7 20.6 7.3C20.6 6.9694 20.3312 6.7 20 6.7C19.6682 6.7 19.4 6.4312 19.4 6.1C19.4 5.7688 19.6682 5.5 20 5.5C20.9924 5.5 21.8 6.3076 21.8 7.3L21.8 9.7C21.8 10.3618 22.3388 10.9 23 10.9C23.3318 10.9 23.6 11.1688 23.6 11.5C23.6 11.8312 23.3318 12.1 23 12.1C22.3388 12.1 21.8 12.6382 21.8 13.3L21.8 15.7C21.8 16.6924 20.9924 17.5 20 17.5C19.6682 17.5 19.4 17.2312 19.4 16.9C19.4 16.5688 19.6682 16.3 20 16.3C20.3312 16.3 20.6 16.0306 20.6 15.7L20.6 13.3C20.6 12.58 20.9252 11.9404 21.4292 11.5C20.9252 11.0596 20.6 10.42 20.6 9.7L20.6 9.7ZM15.8 8.5C16.2968 8.5 16.7 8.9032 16.7 9.4C16.7 9.8968 16.2968 10.3 15.8 10.3C15.3032 10.3 14.9 9.8968 14.9 9.4C14.9 8.9032 15.3032 8.5 15.8 8.5L15.8 8.5ZM8.6 10.9C9.2612 10.9 9.8 10.3618 9.8 9.7L9.8 7.3C9.8 6.3076 10.6076 5.5 11.6 5.5C11.9318 5.5 12.2 5.7688 12.2 6.1C12.2 6.4312 11.9318 6.7 11.6 6.7C11.2688 6.7 11 6.9694 11 7.3L11 9.7C11 10.42 10.6748 11.0596 10.1708 11.5C10.6748 11.9404 11 12.58 11 13.3L11 15.7C11 16.0306 11.2688 16.3 11.6 16.3C11.9318 16.3 12.2 16.5688 12.2 16.9C12.2 17.2312 11.9318 17.5 11.6 17.5C10.6076 17.5 9.8 16.6924 9.8 15.7L9.8 13.3C9.8 12.6382 9.2612 12.1 8.6 12.1C8.2682 12.1 8 11.8312 8 11.5C8 11.1688 8.2682 10.9 8.6 10.9L8.6 10.9Z" />
        <path d="M27.06 20.7412l-22.2638 0-2.8512 0-.528 0 0 .528 0 9.1351 0 .528.528 0 27.9668 0 .528 0 0-.528 0-9.1351 0-.528-.528 0-2.8512 0" />
    </g>
    <text x="4" y="29" font-size="8" font-family="Verdana" font-weight="bold" fill="white">
        JSON
    </text>
</svg>