<svg fill="#68217a" viewBox="0 0 45 58" height='100px' width='100px' xmlns="http://www.w3.org/2000/svg" version="1.1">
    <path d="M27.155,45.988 C26.923,45.679 26.658,45.455 26.362,45.318 C26.066,45.182 25.754,45.113 25.426,45.113 C25.089,45.113 24.768,45.177 24.462,45.305 C24.156,45.433 23.883,45.648 23.642,45.954 C23.4,46.26 23.211,46.653 23.074,47.137 C22.937,47.62 22.864,48.212 22.856,48.914 C22.864,49.598 22.935,50.181 23.067,50.664 C23.199,51.147 23.382,51.541 23.614,51.847 C23.847,52.152 24.111,52.375 24.407,52.517 C24.703,52.658 25.016,52.728 25.344,52.728 C25.681,52.728 26.002,52.662 26.308,52.53 C26.613,52.398 26.887,52.182 27.128,51.881 C27.369,51.58 27.559,51.185 27.695,50.698 C27.832,50.211 27.905,49.616 27.914,48.914 C27.905,48.23 27.834,47.649 27.702,47.171 C27.57,46.692 27.388,46.298 27.155,45.988" />
    <path d="M45,39 L45,13.978 C45,13.212 44.908,12.645 44.45,12.186 L32.813,0.55 C32.464,0.201 31.98,0 31.485,0 L2.463,0 C1.277,0 0,0.915 0,2.926 L0,39 L45,39 L45,39 Z" />
    <path fill="white" d="M23 27C23 27.552 22.553 28 22 28C21.447 28 21 27.552 21 27L21 24C21 23.448 21.447 23 22 23C22.553 23 23 23.448 23 24L23 27 23 27ZM30 18 30 14C30 13.449 29.552 13 29 13C28.447 13 28 12.552 28 12C28 11.448 28.447 11 29 11C30.654 11 32 12.346 32 14L32 18C32 19.103 32.898 20 34 20C34.553 20 35 20.448 35 21C35 21.552 34.553 22 34 22C32.898 22 32 22.897 32 24L32 28C32 29.654 30.654 31 29 31C28.447 31 28 30.552 28 30C28 29.448 28.447 29 29 29C29.552 29 30 28.551 30 28L30 24C30 22.8 30.542 21.734 31.382 21C30.542 20.266 30 19.2 30 18L30 18ZM22 16C22.828 16 23.5 16.672 23.5 17.5C23.5 18.328 22.828 19 22 19C21.172 19 20.5 18.328 20.5 17.5C20.5 16.672 21.172 16 22 16L22 16ZM10 20C11.102 20 12 19.103 12 18L12 14C12 12.346 13.346 11 15 11C15.553 11 16 11.448 16 12C16 12.552 15.553 13 15 13C14.448 13 14 13.449 14 14L14 18C14 19.2 13.458 20.266 12.618 21C13.458 21.734 14 22.8 14 24L14 28C14 28.551 14.448 29 15 29C15.553 29 16 29.448 16 30C16 30.552 15.553 31 15 31C13.346 31 12 29.654 12 28L12 24C12 22.897 11.102 22 10 22C9.447 22 9 21.552 9 21C9 20.448 9.447 20 10 20L10 20Z" />
    <path d="M0,41 L0,56 C0,57.009 1.22,58 2.463,58 L42.537,58 C43.78,58 45,57.009 45,56 L45,41 L0,41 L0,41 Z" />
    <text x="1" y="56" font-size="18" font-family="Consolas" fill="white">
        Peek
    </text>
</svg>