<svg height='100px' width='100px'  fill="#68217a" xmlns="http://www.w3.org/2000/svg" viewBox="0 0 45 58" version="1.1" x="0px" y="0px">
    <path d="M27.155,45.988 C26.923,45.679 26.658,45.455 26.362,45.318 C26.066,45.182 25.754,45.113 25.426,45.113 C25.089,45.113 24.768,45.177 24.462,45.305 C24.156,45.433 23.883,45.648 23.642,45.954 C23.4,46.26 23.211,46.653 23.074,47.137 C22.937,47.62 22.864,48.212 22.856,48.914 C22.864,49.598 22.935,50.181 23.067,50.664 C23.199,51.147 23.382,51.541 23.614,51.847 C23.847,52.152 24.111,52.375 24.407,52.517 C24.703,52.658 25.016,52.728 25.344,52.728 C25.681,52.728 26.002,52.662 26.308,52.53 C26.613,52.398 26.887,52.182 27.128,51.881 C27.369,51.58 27.559,51.185 27.695,50.698 C27.832,50.211 27.905,49.616 27.914,48.914 C27.905,48.23 27.834,47.649 27.702,47.171 C27.57,46.692 27.388,46.298 27.155,45.988" />
    <path d="M45,39 L45,13.978 C45,13.212 44.908,12.645 44.45,12.186 L32.813,0.55 C32.464,0.201 31.98,0 31.485,0 L2.463,0 C1.277,0 0,0.915 0,2.926 L0,39 L45,39 L45,39 Z M23,33 C23,33.552 22.553,34 22,34 C21.447,34 21,33.552 21,33 L21,30 C21,29.448 21.447,29 22,29 C22.553,29 23,29.448 23,30 L23,33 L23,33 Z M31,3.391 C31,2.934 31.553,2.704 31.877,3.028 L41.972,13.123 C42.296,13.447 42.066,14 41.609,14 L31,14 L31,3.391 L31,3.391 Z M30,24 L30,20 C30,19.449 29.552,19 29,19 C28.447,19 28,18.552 28,18 C28,17.448 28.447,17 29,17 C30.654,17 32,18.346 32,20 L32,24 C32,25.103 32.898,26 34,26 C34.553,26 35,26.448 35,27 C35,27.552 34.553,28 34,28 C32.898,28 32,28.897 32,30 L32,34 C32,35.654 30.654,37 29,37 C28.447,37 28,36.552 28,36 C28,35.448 28.447,35 29,35 C29.552,35 30,34.551 30,34 L30,30 C30,28.8 30.542,27.734 31.382,27 C30.542,26.266 30,25.2 30,24 L30,24 Z M22,22 C22.828,22 23.5,22.672 23.5,23.5 C23.5,24.328 22.828,25 22,25 C21.172,25 20.5,24.328 20.5,23.5 C20.5,22.672 21.172,22 22,22 L22,22 Z M10,26 C11.102,26 12,25.103 12,24 L12,20 C12,18.346 13.346,17 15,17 C15.553,17 16,17.448 16,18 C16,18.552 15.553,19 15,19 C14.448,19 14,19.449 14,20 L14,24 C14,25.2 13.458,26.266 12.618,27 C13.458,27.734 14,28.8 14,30 L14,34 C14,34.551 14.448,35 15,35 C15.553,35 16,35.448 16,36 C16,36.552 15.553,37 15,37 C13.346,37 12,35.654 12,34 L12,30 C12,28.897 11.102,28 10,28 C9.447,28 9,27.552 9,27 C9,26.448 9.447,26 10,26 L10,26 Z" />
    <path d="M0,41 L0,56 C0,57.009 1.22,58 2.463,58 L42.537,58 C43.78,58 45,57.009 45,56 L45,41 L0,41 L0,41 Z" />
    <text x="2" y="55" font-size="19" font-family="Consolas" fill="white">
        JSON
    </text>
</svg>